<?xml version="1.0" encoding="utf-8"?>
<!-- Generator: Adobe Illustrator 21.1.0, SVG Export Plug-In . SVG Version: 6.00 Build 0)  -->
<svg version="1.1" id="Layer_1" xmlns="http://www.w3.org/2000/svg" xmlns:xlink="http://www.w3.org/1999/xlink" x="0px" y="0px"
	 viewBox="0 0 24 24" style="enable-background:new 0 0 24 24;" xml:space="preserve">
<g>
	<path d="M7.8,14.3h8.4c0.7,0,1.2-0.6,1.2-1.3V9.7c0-0.7-0.5-1.2-1.2-1.2H7.8C7.1,8.4,6.5,9,6.5,9.7V13C6.5,13.7,7.1,14.3,7.8,14.3z
		 M7.3,9.7c0-0.2,0.2-0.4,0.5-0.4h8.4c0.2,0,0.4,0.2,0.4,0.4V13c0,0.2-0.1,0.5-0.4,0.5H7.8c-0.2,0-0.5-0.2-0.5-0.5V9.7z"/>
	<path d="M13.7,18.1h-3.4c-0.2,0-0.4,0.2-0.4,0.4c0,0.2,0.2,0.4,0.4,0.4h3.4c0.2,0,0.4-0.2,0.4-0.4C14.1,18.3,13.9,18.1,13.7,18.1z"
		/>
	<path d="M12.9,19.8h-1.7c-0.2,0-0.4,0.2-0.4,0.4c0,0.2,0.2,0.4,0.4,0.4h1.7c0.2,0,0.4-0.2,0.4-0.4C13.3,20,13.1,19.8,12.9,19.8z"/>
	<path d="M20.9,1.7H5.3c-0.2,0-0.4,0.2-0.4,0.4c0,0.2,0.2,0.4,0.4,0.4h15.6c0.2,0,0.4-0.2,0.4-0.4C21.3,1.9,21.1,1.7,20.9,1.7z"/>
	<path d="M20.9,3.4H5.3c-0.2,0-0.4,0.2-0.4,0.4c0,0.2,0.2,0.4,0.4,0.4h15.6c0.2,0,0.4-0.2,0.4-0.4C21.3,3.6,21.1,3.4,20.9,3.4z"/>
	<path d="M21.3,5.1h-16c-1.2,0-2.1-0.9-2.1-2.1c0-1.2,0.9-2.1,2.1-2.1h16c0.2,0,0.4-0.2,0.4-0.4c0-0.2-0.2-0.4-0.4-0.4h-16
		C3.9,0,2.7,1,2.4,2.3c0,0.1-0.1,0.1-0.1,0.2V21c0,1.6,1.4,3,3,3h13.5c1.6,0,2.9-1.4,2.9-3V5.4C21.7,5.2,21.5,5.1,21.3,5.1z
		 M20.8,21c0,1.2-0.9,2.1-2.1,2.1H5.3c-1.2,0-2.2-1-2.2-2.1V5c0.6,0.5,1.3,0.9,2.2,0.9h15.5V21z"/>
</g>
</svg>
