<?xml version="1.0" encoding="utf-8"?>
<!-- Generator: Adobe Illustrator 21.1.0, SVG Export Plug-In . SVG Version: 6.00 Build 0)  -->
<svg version="1.1" id="Layer_1" xmlns="http://www.w3.org/2000/svg" xmlns:xlink="http://www.w3.org/1999/xlink" x="0px" y="0px"
	 viewBox="0 0 24 24" style="enable-background:new 0 0 24 24;" xml:space="preserve">
<g>
	<path d="M2.6,6.6C4,6.6,5.2,5.4,5.2,4c0-1.4-1.2-2.6-2.6-2.6C1.2,1.4,0,2.6,0,4C0,5.4,1.2,6.6,2.6,6.6L2.6,6.6z M2.6,2.6
		C3.3,2.6,4,3.3,4,4c0,0.8-0.6,1.4-1.4,1.4C1.8,5.4,1.2,4.8,1.2,4C1.2,3.3,1.8,2.6,2.6,2.6L2.6,2.6z M2.6,2.6"/>
	<path d="M2.6,14.6c1.4,0,2.6-1.2,2.6-2.6c0-1.4-1.2-2.6-2.6-2.6C1.2,9.4,0,10.6,0,12S1.2,14.6,2.6,14.6L2.6,14.6z M2.6,10.6
		C3.3,10.6,4,11.2,4,12c0,0.8-0.6,1.4-1.4,1.4c-0.8,0-1.4-0.6-1.4-1.4C1.2,11.2,1.8,10.6,2.6,10.6L2.6,10.6z M2.6,10.6"/>
	<path d="M2.6,22.6c1.4,0,2.6-1.2,2.6-2.6c0-1.4-1.2-2.6-2.6-2.6C1.2,17.4,0,18.6,0,20C0,21.4,1.2,22.6,2.6,22.6L2.6,22.6z
		 M2.6,18.6C3.3,18.6,4,19.2,4,20c0,0.8-0.6,1.4-1.4,1.4c-0.8,0-1.4-0.6-1.4-1.4C1.2,19.2,1.8,18.6,2.6,18.6L2.6,18.6z M2.6,18.6"/>
	<path d="M8.6,4.6h14.8C23.7,4.6,24,4.3,24,4c0-0.3-0.3-0.6-0.6-0.6H8.6C8.3,3.4,8,3.7,8,4C8,4.3,8.3,4.6,8.6,4.6L8.6,4.6z M8.6,4.6
		"/>
	<path d="M8.6,12.6h14.8c0.3,0,0.6-0.3,0.6-0.6c0-0.3-0.3-0.6-0.6-0.6H8.6C8.3,11.4,8,11.7,8,12C8,12.3,8.3,12.6,8.6,12.6L8.6,12.6z
		 M8.6,12.6"/>
	<path d="M8.6,20.6h14.8c0.3,0,0.6-0.3,0.6-0.6c0-0.3-0.3-0.6-0.6-0.6H8.6C8.3,19.4,8,19.6,8,20C8,20.3,8.3,20.6,8.6,20.6L8.6,20.6z
		 M8.6,20.6"/>
</g>
</svg>
