<?xml version="1.0" encoding="utf-8"?>
<!-- Generator: Adobe Illustrator 21.1.0, SVG Export Plug-In . SVG Version: 6.00 Build 0)  -->
<svg version="1.1" id="Layer_1" xmlns="http://www.w3.org/2000/svg" xmlns:xlink="http://www.w3.org/1999/xlink" x="0px" y="0px"
	 viewBox="0 0 24 24" style="enable-background:new 0 0 24 24;" xml:space="preserve">
<g>
	<path d="M22.3,3.2H1.7C0.8,3.2,0,4,0,4.9v14.2c0,0.9,0.8,1.7,1.7,1.7h20.6c0.9,0,1.7-0.8,1.7-1.7V4.9C24,4,23.2,3.2,22.3,3.2z
		 M23.2,19.1c0,0.5-0.4,0.9-0.9,0.9H1.7c-0.5,0-0.9-0.4-0.9-0.9V4.9C0.8,4.4,1.2,4,1.7,4h20.6c0.5,0,0.9,0.4,0.9,0.9V19.1z"/>
	<path d="M9.1,14.5l-1.5-0.7v-0.2c0.7-0.4,1.1-0.9,1.4-1.7c0.4-0.2,0.6-0.6,0.6-1.1v-0.4c0-0.4-0.2-0.7-0.5-0.9
		C8.9,7.9,7.8,7.2,6,7.2c-0.1,0-0.2,0-0.3,0c-0.3,0-0.9,0-1.3-0.3C4.3,6.8,4.2,6.7,4.1,6.6C4,6.4,3.7,6.3,3.5,6.4
		C3.3,6.5,3.2,6.7,3.2,6.9c0,0.1,0,0.3,0.1,0.5c0.1,0.4,0.1,0.4,0,0.6c0,0.1-0.1,0.2-0.2,0.3C3,8.7,2.9,9.1,2.9,9.5
		C2.6,9.7,2.4,10,2.4,10.4v0.4c0,0.4,0.2,0.8,0.6,1.1c0.3,0.8,0.7,1.4,1.4,1.7v0.2l-1.5,0.7C2.3,14.8,2,15.4,2,16v0.5
		c0,0.3,0,1.1,4,1.1c4,0,4-0.8,4-1.1V16C10,15.4,9.6,14.8,9.1,14.5z M9.2,16.4C9,16.6,7.9,16.8,6,16.8s-3-0.2-3.2-0.4V16
		c0-0.3,0.2-0.6,0.5-0.8l1.5-0.8c0.2-0.1,0.4-0.4,0.4-0.6v-0.7L5,13c-0.6-0.3-1-0.8-1.2-1.5l-0.1-0.2l-0.2-0.1
		c-0.2-0.1-0.3-0.2-0.3-0.4v-0.4c0-0.1,0.1-0.3,0.2-0.4l0.2-0.1l0-0.2c0-0.4,0.1-0.7,0.2-1C3.9,8.6,4,8.5,4,8.4
		C4.1,8.1,4.2,8,4.2,7.7C4.6,7.9,5.2,8,5.8,8C5.9,8,5.9,8,6,8c1.5,0,2.2,0.5,2.4,1.8l0,0.2L8.6,10c0.1,0.1,0.2,0.2,0.2,0.4v0.4
		c0,0.2-0.1,0.3-0.3,0.4l-0.2,0.1l-0.1,0.2C8,12.2,7.6,12.7,7,13l-0.2,0.1v0.7c0,0.3,0.1,0.5,0.4,0.6l1.5,0.8
		C9,15.4,9.2,15.7,9.2,16V16.4z"/>
	<path d="M12,9.2h4c0.2,0,0.4-0.2,0.4-0.4c0-0.2-0.2-0.4-0.4-0.4h-4c-0.2,0-0.4,0.2-0.4,0.4C11.6,9,11.8,9.2,12,9.2z"/>
	<path d="M17.6,9.2H18c0.2,0,0.4-0.2,0.4-0.4c0-0.2-0.2-0.4-0.4-0.4h-0.4c-0.2,0-0.4,0.2-0.4,0.4C17.2,9,17.4,9.2,17.6,9.2z"/>
	<path d="M12.4,15.2H12c-0.2,0-0.4,0.2-0.4,0.4c0,0.2,0.2,0.4,0.4,0.4h0.4c0.2,0,0.4-0.2,0.4-0.4C12.8,15.4,12.6,15.2,12.4,15.2z"/>
	<path d="M14.8,15.2H14c-0.2,0-0.4,0.2-0.4,0.4c0,0.2,0.2,0.4,0.4,0.4h0.8c0.2,0,0.4-0.2,0.4-0.4C15.2,15.4,15,15.2,14.8,15.2z"/>
	<path d="M16.8,15.2h-0.4c-0.2,0-0.4,0.2-0.4,0.4c0,0.2,0.2,0.4,0.4,0.4h0.4c0.2,0,0.4-0.2,0.4-0.4C17.2,15.4,17,15.2,16.8,15.2z"/>
	<path d="M19.2,15.2h-0.8c-0.2,0-0.4,0.2-0.4,0.4c0,0.2,0.2,0.4,0.4,0.4h0.8c0.2,0,0.4-0.2,0.4-0.4C19.6,15.4,19.4,15.2,19.2,15.2z"
		/>
	<path d="M20.5,15.3c-0.1,0.1-0.1,0.2-0.1,0.3c0,0.1,0,0.2,0.1,0.3c0.1,0.1,0.2,0.1,0.3,0.1c0.1,0,0.2,0,0.3-0.1
		c0.1-0.1,0.1-0.2,0.1-0.3c0-0.1,0-0.2-0.1-0.3C20.9,15.2,20.7,15.2,20.5,15.3z"/>
	<path d="M20.8,10.8H12c-0.2,0-0.4,0.2-0.4,0.4c0,0.2,0.2,0.4,0.4,0.4h8.8c0.2,0,0.4-0.2,0.4-0.4C21.2,11,21,10.8,20.8,10.8z"/>
	<path d="M20.8,13.2H12c-0.2,0-0.4,0.2-0.4,0.4c0,0.2,0.2,0.4,0.4,0.4h8.8c0.2,0,0.4-0.2,0.4-0.4C21.2,13.4,21,13.2,20.8,13.2z"/>
</g>
</svg>
