<?xml version="1.0" encoding="utf-8"?>
<!-- Generator: Adobe Illustrator 21.1.0, SVG Export Plug-In . SVG Version: 6.00 Build 0)  -->
<svg version="1.1" id="Layer_1" xmlns="http://www.w3.org/2000/svg" xmlns:xlink="http://www.w3.org/1999/xlink" x="0px" y="0px"
	 viewBox="0 0 24 24" style="enable-background:new 0 0 24 24;" xml:space="preserve">
<path id="clip" d="M14.1,7.7c0.3-0.3,0.3-0.8,0-1.1c-0.3-0.3-0.7-0.3-1,0c0,0,0,0,0,0l-7.7,8c-1.4,1.5-1.4,3.8,0,5.3
	c1.4,1.4,3.6,1.5,5,0.1c0,0,0.1-0.1,0.1-0.1l6.4-6.6l0,0L21.1,9c2-2.1,2-5.3,0-7.4c-1.9-2-5-2.1-7-0.2C14,1.4,14,1.5,13.9,1.5
	l-0.3,0.3L3.3,12.5c-2.5,2.7-2.5,6.9,0,9.5c2.4,2.5,6.5,2.6,9,0.2c0.1-0.1,0.1-0.1,0.2-0.2l7.9-8.2c0.3-0.3,0.3-0.8,0-1.1
	c-0.3-0.3-0.7-0.3-1,0c0,0,0,0,0,0L11.5,21c-1.9,2-5,2.1-7,0.2C4.4,21.1,4.4,21,4.3,21c-2-2.1-2-5.3,0-7.4L14.6,2.9l0,0l0.3-0.3
	c1.4-1.4,3.6-1.5,5-0.1c0,0,0.1,0.1,0.1,0.1c1.4,1.5,1.4,3.8,0,5.3l-4.2,4.4l0,0l-6.4,6.6c-0.8,0.8-2.2,0.9-3,0.1c0,0,0,0-0.1-0.1
	c-0.8-0.9-0.8-2.3,0-3.2L14.1,7.7z"/>
</svg>
