<?xml version="1.0" encoding="utf-8"?>
<!-- Generator: Adobe Illustrator 21.1.0, SVG Export Plug-In . SVG Version: 6.00 Build 0)  -->
<svg version="1.1" id="Layer_1" xmlns="http://www.w3.org/2000/svg" xmlns:xlink="http://www.w3.org/1999/xlink" x="0px" y="0px"
	 viewBox="0 0 24 24" style="enable-background:new 0 0 24 24;" xml:space="preserve">
<g>
	<path d="M4.1,9.7c0-0.3-0.3-0.5-0.6-0.5c-0.3,0-0.5,0.3-0.5,0.6c0.4,3.7,1.9,7.5,4.2,10.8c0.1,0.2,0.3,0.2,0.5,0.2
		c0.1,0,0.2,0,0.3-0.1c0.3-0.2,0.3-0.5,0.1-0.8C5.8,16.8,4.5,13.3,4.1,9.7z"/>
	<path d="M3.5,6.3C3.5,6.3,3.5,6.3,3.5,6.3c0.4,0,0.6-0.2,0.6-0.5C4.2,5,4.4,4.1,4.8,3.5C5,3.2,5,2.9,4.7,2.7
		C4.5,2.5,4.1,2.6,3.9,2.8C3.3,3.6,3.1,4.7,3,5.7C2.9,6,3.1,6.3,3.5,6.3z"/>
	<path d="M23.3,6.3c-0.8-1.3-2.3-1.7-3.6-1.9c-0.2-1.7-0.5-2.9-0.7-3.4c-0.1-0.2-0.3-0.7-0.8-0.7H1.6c-0.5,0-0.7,0.5-0.8,0.7
		C0,2.9-1.7,14.7,5.1,22.4c0.8,0.9,1.8,1.4,3,1.4h3.6c1.1,0,2.2-0.5,3-1.4c0.7-0.8,1.4-1.7,1.9-2.6c0.2,0,0.4,0,0.5,0
		c2.8,0,5.1-2.6,6.3-7.2C24.2,9.6,24.2,7.6,23.3,6.3z M13.9,21.6c-0.5,0.6-1.3,1-2.1,1H8.1c-0.8,0-1.6-0.4-2.1-1
		C-0.5,14.3,1.2,2.9,1.9,1.4H18C18.7,2.9,20.4,14.3,13.9,21.6z M22.3,12.3c-0.8,3.1-2.5,6.2-5.1,6.3c2.3-4.5,2.7-9.5,2.5-13.1
		c1.2,0.3,2.1,0.6,2.6,1.4C23,7.9,23,9.7,22.3,12.3z"/>
</g>
</svg>
