<?xml version="1.0" encoding="utf-8"?>
<!-- Generator: Adobe Illustrator 21.1.0, SVG Export Plug-In . SVG Version: 6.00 Build 0)  -->
<svg version="1.1" id="Layer_1" xmlns="http://www.w3.org/2000/svg" xmlns:xlink="http://www.w3.org/1999/xlink" x="0px" y="0px"
	 viewBox="0 0 24 24" style="enable-background:new 0 0 24 24;" xml:space="preserve">
<g>
	<path d="M23.9,16.9C23.9,16.8,23.9,16.8,23.9,16.9C23.9,16.8,23.9,16.8,23.9,16.9C23.9,16.8,23.9,16.8,23.9,16.9
		c0.1-0.1,0.1-0.1,0.1-0.1c0,0,0,0,0,0c0,0,0,0,0,0c0,0,0,0,0,0c0,0,0,0,0,0c0,0,0,0,0,0c0,0,0,0,0,0c0,0,0,0,0,0c0,0,0,0,0,0
		c0,0,0,0,0,0c0,0,0,0,0-0.1v-16C24,0.2,23.8,0,23.5,0H5C2.2,0,0,1.5,0,3.5v17c0,2,2.2,3.5,5,3.5c2.6,0,4.6-1.3,5-3h9.5c0,0,0,0,0,0
		c0,0,0,0,0,0c0,0,0,0,0,0c0.1,0,0.2-0.1,0.3-0.1L23.9,16.9C23.9,16.9,23.9,16.9,23.9,16.9L23.9,16.9C23.9,16.9,23.9,16.9,23.9,16.9
		z M23,1v15h-3.5c-0.3,0-0.5,0.2-0.5,0.5V20h-9V3.5c0-1-0.6-1.9-1.5-2.5H23z M22.3,17L20,19.3V17H22.3z M5,1c2.2,0,4,1.1,4,2.5
		C9,4.9,7.2,6,5,6C2.8,6,1,4.9,1,3.5C1,2.1,2.8,1,5,1z M5,23c-2.2,0-4-1.1-4-2.5V5.6C1.9,6.5,3.3,7,5,7c1.7,0,3.1-0.5,4-1.4v14.9
		C9,21.9,7.2,23,5,23z"/>
	<path d="M5,5c1.1,0,2-0.7,2-1.5C7,2.7,6.1,2,5,2S3,2.7,3,3.5C3,4.3,3.9,5,5,5z M5,3c0.6,0,1,0.3,1,0.5C6,3.7,5.6,4,5,4
		C4.4,4,4,3.7,4,3.5C4,3.3,4.4,3,5,3z"/>
</g>
</svg>
