<?xml version="1.0" encoding="utf-8"?>
<!-- Generator: Adobe Illustrator 21.1.0, SVG Export Plug-In . SVG Version: 6.00 Build 0)  -->
<svg version="1.1" id="Layer_1" xmlns="http://www.w3.org/2000/svg" xmlns:xlink="http://www.w3.org/1999/xlink" x="0px" y="0px"
	 viewBox="0 0 24 24" style="enable-background:new 0 0 24 24;" xml:space="preserve">
<g>
	<path d="M23.6,2.5H0.4C0.2,2.5,0,2.7,0,2.9v18.2c0,0.2,0.2,0.4,0.4,0.4h23.2c0.2,0,0.4-0.2,0.4-0.4V2.9C24,2.7,23.8,2.5,23.6,2.5
		L23.6,2.5z M23.2,20.7H0.8V3.3h22.3V20.7z M23.2,20.7"/>
	<path d="M6.6,11.6c1.3,0,2.3-1,2.3-2.3c0-1.3-1-2.3-2.3-2.3c-1.3,0-2.3,1-2.3,2.3C4.3,10.6,5.3,11.6,6.6,11.6L6.6,11.6z M6.6,7.9
		c0.8,0,1.5,0.7,1.5,1.5c0,0.8-0.7,1.5-1.5,1.5c-0.8,0-1.5-0.7-1.5-1.5C5.1,8.5,5.8,7.9,6.6,7.9L6.6,7.9z M6.6,7.9"/>
	<path d="M2.9,19c0.1,0,0.2,0,0.3-0.1L9.9,13l4.3,4.3c0.2,0.2,0.4,0.2,0.6,0c0.2-0.2,0.2-0.4,0-0.6l-2-2l3.8-4.2l4.7,4.3
		c0.2,0.2,0.4,0.1,0.6,0c0.2-0.2,0.1-0.4,0-0.6l-5-4.6c-0.1-0.1-0.2-0.1-0.3-0.1c-0.1,0-0.2,0.1-0.3,0.1l-4.1,4.4l-2-2
		c-0.2-0.2-0.4-0.2-0.6,0l-7,6.2c-0.2,0.2-0.2,0.4,0,0.6C2.7,19,2.8,19,2.9,19L2.9,19z M2.9,19"/>
</g>
</svg>
