<?xml version="1.0" encoding="utf-8"?>
<!-- Generator: Adobe Illustrator 21.1.0, SVG Export Plug-In . SVG Version: 6.00 Build 0)  -->
<svg version="1.1" id="Layer_1" xmlns="http://www.w3.org/2000/svg" xmlns:xlink="http://www.w3.org/1999/xlink" x="0px" y="0px"
	 viewBox="0 0 24 24" style="enable-background:new 0 0 24 24;" xml:space="preserve">
<g>
	<path d="M22.8,20.6H1.2c-0.7,0-1.2,0.5-1.2,1.2C0,22.5,0.5,23,1.2,23h21.6c0.7,0,1.2-0.5,1.2-1.2C24,21.1,23.5,20.6,22.8,20.6z"/>
	<path d="M1.2,3.4h21.6c0.7,0,1.2-0.5,1.2-1.2S23.5,1,22.8,1H1.2C0.5,1,0,1.5,0,2.2S0.5,3.4,1.2,3.4z"/>
	<path d="M22.8,10.8H1.2C0.5,10.8,0,11.3,0,12s0.5,1.2,1.2,1.2h21.6c0.7,0,1.2-0.5,1.2-1.2S23.5,10.8,22.8,10.8z"/>
</g>
</svg>
