<?xml version="1.0" encoding="utf-8"?>
<!-- Generator: Adobe Illustrator 21.1.0, SVG Export Plug-In . SVG Version: 6.00 Build 0)  -->
<svg version="1.1" id="Layer_1" xmlns="http://www.w3.org/2000/svg" xmlns:xlink="http://www.w3.org/1999/xlink" x="0px" y="0px"
	 viewBox="0 0 24 24" style="enable-background:new 0 0 24 24;" xml:space="preserve">
<path id="Mouse" d="M20.2,8.2h-1.5c0-3.7-3-6.7-6.7-6.7s-6.7,3-6.7,6.7l0,0H3.8C3.8,3.7,7.5,0,12,0S20.2,3.7,20.2,8.2z M12,24
	c-4.5,0-8.2-3.7-8.2-8.3v-6h1.5v6c0,3.7,3,6.7,6.7,6.7s6.7-3,6.7-6.7v-6h1.5v6C20.2,20.3,16.5,24,12,24z M12.7,10.5h-1.5v-6h1.5
	V10.5z"/>
</svg>
