<?xml version="1.0" encoding="utf-8"?>
<!-- Generator: Adobe Illustrator 21.1.0, SVG Export Plug-In . SVG Version: 6.00 Build 0)  -->
<svg version="1.1" id="Layer_1" xmlns="http://www.w3.org/2000/svg" xmlns:xlink="http://www.w3.org/1999/xlink" x="0px" y="0px"
	 viewBox="0 0 24 24" style="enable-background:new 0 0 24 24;" xml:space="preserve">
<path d="M11.5,23.5L11.5,23.5c-3.1,0-6-1.2-8.1-3.4c-4.5-4.5-4.5-11.7,0-16.3c2.1-2.2,5.1-3.4,8.1-3.4h0c1.6,0,3.2,0.3,4.7,1
	c0.5,0.2,0.7,0.8,0.5,1.3c-0.2,0.5-0.8,0.7-1.3,0.5c0,0,0,0,0,0c-1.2-0.5-2.5-0.8-3.9-0.8h0c-2.5,0-5,1-6.7,2.8C1,9,1,15.1,4.8,18.8
	c1.8,1.7,4.2,2.7,6.6,2.8h0c2.5,0,5-1,6.7-2.8C20,17,21,14.5,21,12v-1c0-0.5,0.4-1,1-1c0.5,0,1,0.4,1,1c0,0,0,0,0,0v1
	c0,3-1.2,6-3.4,8.1C17.4,22.3,14.5,23.5,11.5,23.5z M11.5,15.1c-0.3,0-0.5-0.1-0.7-0.3l-3.2-3.2c-0.4-0.4-0.4-1,0-1.4
	c0.4-0.4,1-0.4,1.4,0c0,0,0,0,0,0l2.5,2.5L22.3,1.8c0.4-0.4,1-0.4,1.4,0c0,0,0,0,0,0c0.4,0.4,0.4,1,0,1.4L12.2,14.8
	C12,15,11.7,15.1,11.5,15.1L11.5,15.1z"/>
</svg>
