<?xml version="1.0" encoding="utf-8"?>
<!-- Generator: Adobe Illustrator 21.1.0, SVG Export Plug-In . SVG Version: 6.00 Build 0)  -->
<svg version="1.1" id="Layer_1" xmlns="http://www.w3.org/2000/svg" xmlns:xlink="http://www.w3.org/1999/xlink" x="0px" y="0px"
	 viewBox="0 0 24 24" style="enable-background:new 0 0 24 24;" xml:space="preserve">
<g>
	<path d="M22.3,5.1h-4.5V2.5c0-0.3-0.2-0.5-0.5-0.5H6.7C6.4,2,6.2,2.3,6.2,2.5v2.5H1.7C0.8,5.1,0,5.8,0,6.8v8.1
		c0,0.9,0.8,1.7,1.7,1.7h4.5v4.9c0,0.3,0.2,0.5,0.5,0.5h10.6c0.3,0,0.5-0.2,0.5-0.5v-4.9h4.5c0.9,0,1.7-0.8,1.7-1.7V6.8
		C24,5.8,23.2,5.1,22.3,5.1L22.3,5.1z M17.8,6.1H19v1.4h-1.2V6.1z M7.2,3.1h9.6v4.5H7.2V3.1z M5,6.1h1.2v1.4H5V6.1z M16.8,20.9H7.2
		v-6.7h9.6V20.9z M23,14.9c0,0.4-0.3,0.7-0.7,0.7h-4.5v-1.3h0.9c0.3,0,0.5-0.2,0.5-0.5c0-0.3-0.2-0.5-0.5-0.5H5.2
		c-0.3,0-0.5,0.2-0.5,0.5c0,0.3,0.2,0.5,0.5,0.5h0.9v1.3H1.7c-0.4,0-0.7-0.3-0.7-0.7V6.8c0-0.4,0.3-0.7,0.7-0.7h2.2V8
		c0,0.3,0.2,0.5,0.5,0.5h15.1c0.3,0,0.5-0.2,0.5-0.5V6.1h2.2c0.4,0,0.7,0.3,0.7,0.7V14.9z M23,14.9"/>
	<path d="M3.9,10.3c0,0.4-0.3,0.6-0.6,0.6c-0.4,0-0.6-0.3-0.6-0.6c0-0.4,0.3-0.6,0.6-0.6C3.6,9.6,3.9,9.9,3.9,10.3L3.9,10.3z
		 M3.9,10.3"/>
	<path d="M11.9,18.1H9.5c-0.3,0-0.5,0.2-0.5,0.5c0,0.3,0.2,0.5,0.5,0.5h2.4c0.3,0,0.5-0.2,0.5-0.5C12.4,18.3,12.1,18.1,11.9,18.1
		L11.9,18.1z M11.9,18.1"/>
	<path d="M14.5,15.5h-5C9.2,15.5,9,15.8,9,16c0,0.3,0.2,0.5,0.5,0.5h5c0.3,0,0.5-0.2,0.5-0.5C15,15.8,14.8,15.5,14.5,15.5L14.5,15.5
		z M14.5,15.5"/>
</g>
</svg>
