<?xml version="1.0" encoding="utf-8"?>
<!-- Generator: Adobe Illustrator 21.1.0, SVG Export Plug-In . SVG Version: 6.00 Build 0)  -->
<svg version="1.1" id="Layer_1" xmlns="http://www.w3.org/2000/svg" xmlns:xlink="http://www.w3.org/1999/xlink" x="0px" y="0px"
	 viewBox="0 0 24 24" style="enable-background:new 0 0 24 24;" xml:space="preserve">
<g>
	<path d="M21.1,0H2.9C2.7,0,2.5,0.2,2.5,0.4v23.2c0,0.2,0.2,0.4,0.4,0.4h18.2c0.2,0,0.4-0.2,0.4-0.4V0.4C21.5,0.2,21.3,0,21.1,0z
		 M20.6,23.2H3.3V0.8h17.3V23.2z"/>
	<path d="M9.9,11.5c1.3,0,2.3-1,2.3-2.3s-1-2.3-2.3-2.3c-1.3,0-2.3,1-2.3,2.3S8.6,11.5,9.9,11.5z M9.9,7.8c0.8,0,1.5,0.7,1.5,1.5
		c0,0.8-0.7,1.5-1.5,1.5c-0.8,0-1.5-0.7-1.5-1.5C8.4,8.4,9.1,7.8,9.9,7.8z"/>
	<path d="M6.2,19c0.1,0,0.2,0,0.3-0.1l6.7-5.9l4.3,4.3c0.2,0.2,0.4,0.2,0.6,0c0.2-0.2,0.2-0.4,0-0.6l-4.6-4.7
		c-0.2-0.2-0.4-0.2-0.6,0l-7,6.2c-0.2,0.2-0.2,0.4,0,0.6C6,19,6.1,19,6.2,19z"/>
</g>
</svg>
