<?xml version="1.0" encoding="utf-8"?>
<!-- Generator: Adobe Illustrator 21.1.0, SVG Export Plug-In . SVG Version: 6.00 Build 0)  -->
<svg version="1.1" id="Layer_1" xmlns="http://www.w3.org/2000/svg" xmlns:xlink="http://www.w3.org/1999/xlink" x="0px" y="0px"
	 viewBox="0 0 24 24" style="enable-background:new 0 0 24 24;" xml:space="preserve">
<path d="M17.2,15.1h-1.1l-0.4-0.4c3.2-3.7,2.8-9.4-1-12.6C11-1.1,5.4-0.6,2.1,3.1c-3.2,3.7-2.8,9.4,1,12.6c3.3,2.9,8.3,2.9,11.6,0
	l0.4,0.4v1.1L22,24l2-2L17.2,15.1z M8.9,15.1c-3.4,0-6.2-2.8-6.2-6.2c0-3.4,2.8-6.2,6.2-6.2c3.4,0,6.2,2.8,6.2,6.2c0,0,0,0,0,0
	C15.1,12.3,12.4,15.1,8.9,15.1C8.9,15.1,8.9,15.1,8.9,15.1z"/>
</svg>
