<?xml version="1.0" encoding="utf-8"?>
<!-- Generator: Adobe Illustrator 21.1.0, SVG Export Plug-In . SVG Version: 6.00 Build 0)  -->
<svg version="1.1" id="Layer_1" xmlns="http://www.w3.org/2000/svg" xmlns:xlink="http://www.w3.org/1999/xlink" x="0px" y="0px"
	 viewBox="0 0 24 24" style="enable-background:new 0 0 24 24;" xml:space="preserve">
<g>
	<path d="M17,2h-2.5c0,1.4-1.1,2.5-2.5,2.5c-1.4,0-2.5-1.1-2.5-2.5H7L0,6l2,5.5l3-1V22h14V10.5l3,1L24,6L17,2z M21.4,10.2l-2.1-0.7
		L18,9.1V21H6V9.1L4.7,9.6l-2.1,0.7L1.2,6.4l6-3.4h1.4c0.4,1.4,1.8,2.5,3.4,2.5c1.6,0,2.9-1.1,3.4-2.5h1.4l6,3.4L21.4,10.2z
		 M21.4,10.2"/>
</g>
</svg>
